<?xml version="1.0" encoding="iso-8859-1"?>
<!-- Generator: Adobe Illustrator 15.0.0, SVG Export Plug-In . SVG Version: 6.00 Build 0)  -->
<!DOCTYPE svg PUBLIC "-//W3C//DTD SVG 1.1//EN" "http://www.w3.org/Graphics/SVG/1.1/DTD/svg11.dtd">
<svg version="1.1" xmlns="http://www.w3.org/2000/svg" xmlns:xlink="http://www.w3.org/1999/xlink" x="0px" y="0px"
	 width="235px" height="235px" viewBox="0 0 112.801 112.801" style="enable-background:new 0 0 112.801 112.801;"
	 xml:space="preserve">
<g id="River">
	<rect y="0" style="fill:#B1B1B1;" width="112.801" height="112.8"/>
	<path style="fill:#E3E3E3;" d="M56.4,8.881c-26.244,0-47.52,21.275-47.52,47.52c0,26.244,21.275,47.519,47.52,47.519
		c26.245,0,47.52-21.274,47.52-47.519C103.92,30.157,82.645,8.881,56.4,8.881z M56.4,97.431c-22.66,0-41.03-18.37-41.03-41.03
		c0-22.66,18.37-41.03,41.03-41.03c22.661,0,41.03,18.37,41.03,41.03C97.43,79.061,79.061,97.431,56.4,97.431z"/>
	<circle style="fill:#54B948;" cx="56.4" cy="56.401" r="38.269"/>
	<ellipse style="fill:#352200;" cx="56.273" cy="61.451" rx="36.965" ry="17.44"/>
	<path style="fill:#007F9F;" d="M90.082,74.58c-6.298-5.107-16.374-11.666-24.168-13.174c-7.334-1.42-7.618-4.281-6.6-8.305
		c1.1-4.345-10.064-13.42-34.65-18.095c13.475,7.15,24.2,13.2,20.35,17.875c-3.85,4.675-7.545,14.199,2.2,17.324
		c13.797,4.426,20.465,8.377,31.633,17.182C83.483,84.021,87.34,79.648,90.082,74.58z"/>
	<g>
		<path style="fill:#FFFFFF;" d="M42.986,49.339c4.29-0.374,6.902-1.12,7.461-2.798c0.372,1.678,4.028,2.425,6.49,2.798
			c-4.625,0.186-5.442,0.218-6.49-0.653C49.701,49.618,45.785,49.525,42.986,49.339z"/>
		<path style="fill:#FFFFFF;" d="M42.874,58.58c5.475-0.477,8.807-1.428,9.521-3.571c0.477,2.143,5.143,3.094,8.285,3.571
			c-5.904,0.238-6.946,0.278-8.285-0.834C51.443,58.938,46.444,58.818,42.874,58.58z"/>
		<path style="fill:#FFFFFF;" d="M44.569,70.061c6.738-0.586,10.838-1.758,11.717-4.394c0.587,2.636,6.329,3.808,10.195,4.394
			c-7.266,0.293-8.547,0.344-10.195-1.025C55.115,70.5,48.963,70.354,44.569,70.061z"/>
		<path style="fill:#FFFFFF;" d="M60.537,70.061c6.738-0.586,10.838-1.758,11.717-4.394c0.587,2.636,6.328,3.808,10.195,4.394
			c-7.266,0.293-8.548,0.344-10.195-1.025C71.082,70.5,64.932,70.354,60.537,70.061z"/>
		<path style="fill:#FFFFFF;" d="M61.242,78.084c8.263-0.719,13.291-2.155,14.369-5.389c0.719,3.233,7.759,4.67,12.5,5.389
			c-8.908,0.36-10.48,0.421-12.5-1.258C74.174,78.624,66.631,78.444,61.242,78.084z"/>
	</g>
	<path style="fill:#295F2F;" d="M65.855,60.045c-0.602-11.829-0.402-25.461-8.02-29.672c11.628,5.211,11.63,23.859,11.229,30.475
		C71.269,50.222,72.07,41.4,71.87,37.591c1.805,6.014,1.244,17.686,0.029,21.852c2.777-3.207,7.388-14.747,6.386-23.512
		c2.207,9.278,1.805,14.979-3.608,25.861c7.218-10.168,10.024-17.988,16.841-19.591c-4.812,5.614-11.428,13.233-13.633,20.652
		c7.619-8.222,8.42-10.827,13.633-10.827c-5.012,3.207-7.914,8.233-10.023,11.933l-0.803,2.302
		C74.478,63.253,72.07,62.049,65.855,60.045z"/>
	<g>
		<path style="fill:#295F2F;" d="M44.447,51.862c-0.845-9.28-2.516-19.876,2.95-24.002c-8.479,5.352-6.407,19.875-5.359,24.983
			c-2.897-8.031-4.503-14.812-4.77-17.802c-0.737,4.885,0.996,13.914,2.405,17.024c-2.52-2.189-7.393-10.665-7.586-17.604
			c-0.688,7.471,0.259,11.867,5.685,19.742c-6.751-7.118-9.806-12.896-15.294-13.388c4.372,3.838,10.371,9.038,12.913,14.571
			c-6.848-5.558-7.761-7.498-11.821-6.918c4.26,1.941,10.682,7.351,12.736,9.998l3.294,2.823
			C40.383,56.729,41.325,56.291,44.447,51.862z"/>
	</g>
</g>
<g id="Layer_1">
</g>
</svg>
